<svg width="87" height="105" viewBox="0 0 87 105" fill="none" xmlns="http://www.w3.org/2000/svg">
<path d="M8.68652 51.4427L21.1286 51.5326L19.8779 43.7679L6.00109 43.6126L8.68652 51.4427ZM15.4049 71.0419L24.2841 71.1454L23.0565 63.5087L12.7944 63.4379L15.4049 71.0419ZM60.5953 63.7663L50.9626 63.7009L49.5361 71.4315L57.3417 71.5282L60.5953 63.7663ZM54.5718 44.1726L53.1658 51.7642L65.6024 51.8583L68.7538 44.3374L54.5718 44.1726ZM35.8951 51.643L35.9864 43.9546L22.3957 43.7992L23.6465 51.549L35.8951 51.643ZM35.7561 63.5973L25.573 63.5292L26.8006 71.1713L35.6662 71.2762L35.7561 63.5973ZM38.2426 63.6109L38.1513 71.3048L47.0115 71.4043L48.4448 63.6845L38.2426 63.6109ZM50.6534 51.7479L52.0513 44.1426L38.4633 43.9832L38.3789 51.6566L50.6534 51.7479ZM50.1751 54.3352L38.3475 54.2439L38.2712 61.1367L48.8985 61.2103L50.1751 54.3352ZM64.5165 54.4374L52.6889 54.3489L51.4163 61.228L61.639 61.2961L64.5165 54.4374ZM21.5455 54.1227L9.57349 54.0382L11.9496 60.9555L22.6559 61.0263L21.5455 54.1227ZM25.1711 61.0468L35.7902 61.1203L35.861 54.2276L24.0661 54.139L25.1711 61.0468ZM0.593445 39.7064C1.19975 38.863 2.17118 38.3902 3.2489 38.3984L70.9201 39.1805L75.1806 29.0573C75.7732 27.6444 77.2583 26.6689 78.787 26.6825L87 26.782L86.9401 31.9566L79.6113 31.8681L55.734 88.7213C55.1413 90.1369 53.6535 91.1138 52.1166 91.0961L17.9513 90.6996L18.0017 85.5222L51.2978 85.9105L55.1727 76.677L14.3762 76.207C12.8107 76.1906 11.3079 75.1061 10.8092 73.6251L0.187424 42.633C-0.164093 41.6138 -0.0169449 40.547 0.593445 39.7064Z" fill="#F35C7A"/>
<path d="M26.6084 92.7408C29.8293 92.7776 32.4085 95.4194 32.3717 98.6376C32.3349 101.853 29.6985 104.428 26.4667 104.394C23.2458 104.352 20.6667 101.717 20.7035 98.5013C20.7457 95.2832 23.3821 92.704 26.6084 92.7408Z" fill="#F35C7A"/>
<path d="M46.243 92.9697C49.4625 93.0038 52.043 95.6429 52.0089 98.8611C51.9722 102.079 49.3358 104.661 46.1094 104.616C42.8858 104.582 40.3121 101.943 40.3462 98.7275C40.3857 95.5121 43.0221 92.9302 46.243 92.9697Z" fill="#F35C7A"/>
<path d="M20.1926 3.92098C21.6273 1.69334 23.9408 0.35267 26.8919 0.0461136C27.1957 0.0120519 27.4955 -0.00429784 27.8129 0.00115205C31.076 0.0515634 34.4972 2.03668 36.045 5.34885C37.7045 2.08165 41.191 0.219147 44.4596 0.272284C44.7798 0.276371 45.0836 0.303621 45.3915 0.343132C48.3208 0.754598 50.588 2.16884 51.9518 4.44008C53.565 7.12006 53.7121 10.7946 52.3551 14.5224C49.4231 22.5214 36.6744 30.4156 36.1308 30.7508C36.1254 30.7562 36.1077 30.7467 36.1022 30.7562C36.0968 30.7698 36.0886 30.7726 36.079 30.778C35.9523 30.8407 35.8243 30.8638 35.7003 30.8638C35.6689 30.8693 35.6485 30.8802 35.6376 30.8802C35.4809 30.8802 35.3256 30.8407 35.1893 30.7671C35.1893 30.7671 35.1784 30.7467 35.1635 30.7412C35.158 30.7331 35.1444 30.7331 35.1417 30.7331C34.6117 30.3815 22.1328 22.0963 19.4623 13.9815C18.217 10.2115 18.4868 6.55055 20.1926 3.92098Z" fill="#BC2967"/>
<path d="M26.9859 0.95506C30.9139 0.547681 36.0545 3.70316 35.9891 9.34788L35.6485 29.958C35.6117 29.9375 22.9339 21.5652 20.3411 13.6955C18.2225 7.27284 20.7594 1.6145 26.9859 0.95506Z" fill="#DB3D8C"/>
<path d="M35.9863 9.37352C36.0735 3.707 41.3327 0.715016 45.2539 1.26137C51.4504 2.11564 53.8116 7.853 51.4926 14.2048C48.6233 21.9927 35.6485 29.9632 35.6485 29.9632V29.9577L35.9891 9.34763C35.9891 9.35308 35.9863 9.36126 35.9863 9.37352Z" fill="#BC2967"/>
</svg>
