<svg xmlns="http://www.w3.org/2000/svg" width="64" height="64" viewBox="0 0 64 64" fill="none">
  <g clip-path="url(#clip0_14830_13834)">
    <path d="M27.9612 11.9161C28.0112 11.921 28.061 11.9259 28.1111 11.9259C28.3677 11.9231 28.6132 11.8211 28.7961 11.6411C28.979 11.4612 29.0851 11.2174 29.0921 10.9609C29.0991 10.7044 29.0064 10.4551 28.8335 10.2655C28.6606 10.0759 28.421 9.96067 28.1649 9.94399C27.9089 9.92731 27.6563 10.0105 27.4603 10.1761C27.2643 10.3417 27.14 10.5767 27.1137 10.832C27.0873 11.0872 27.1608 11.3427 27.3189 11.5449C27.4769 11.747 27.7071 11.8801 27.9612 11.9161Z" fill="#B6BDC2"/>
    <path d="M35.8762 13.1009C35.926 13.1068 35.976 13.1102 36.0261 13.1109C36.2843 13.1087 36.5315 13.0065 36.7159 12.8258C36.9002 12.6451 37.0074 12.4 37.0149 12.142C37.0223 11.8839 36.9295 11.6331 36.7559 11.442C36.5823 11.251 36.3414 11.1346 36.0838 11.1174C35.8263 11.1003 35.5721 11.1836 35.3746 11.3499C35.1772 11.5162 35.0518 11.7525 35.025 12.0092C34.9981 12.266 35.0718 12.5231 35.2305 12.7267C35.3892 12.9303 35.6207 13.0644 35.8762 13.1009Z" fill="#B6BDC2"/>
    <path d="M31.9152 12.506C31.9664 12.5141 32.0183 12.5175 32.0702 12.516C32.3268 12.5124 32.572 12.4097 32.7545 12.2292C32.937 12.0488 33.0425 11.8048 33.049 11.5483C33.0555 11.2917 32.9624 11.0427 32.7892 10.8533C32.6161 10.6639 32.3764 10.5489 32.1203 10.5323C31.8642 10.5158 31.6117 10.5991 31.4157 10.7647C31.2196 10.9302 31.0953 11.1653 31.0688 11.4205C31.0423 11.6758 31.1156 11.9313 31.2734 12.1337C31.4312 12.3361 31.6612 12.4695 31.9152 12.506Z" fill="#B6BDC2"/>
    <path d="M39.6009 14.516C39.7902 14.5151 39.9756 14.4615 40.136 14.361C40.3397 14.2321 40.49 14.0341 40.5593 13.8033C40.6286 13.5725 40.6123 13.3245 40.5134 13.1048C40.4145 12.885 40.2395 12.7084 40.0208 12.6073C39.8021 12.5062 39.5542 12.4875 39.3227 12.5545C39.0913 12.6216 38.8918 12.7699 38.7609 12.9723C38.6301 13.1746 38.5767 13.4174 38.6105 13.656C38.6443 13.8946 38.7631 14.1129 38.9451 14.2709C39.127 14.4289 39.3599 14.516 39.6009 14.516Z" fill="#B6BDC2"/>
    <path d="M4.56545 20.516C4.63717 20.5354 4.7111 20.5455 4.78542 20.546C5.047 20.5531 5.30134 20.4596 5.49611 20.2848C5.69089 20.1101 5.81129 19.8673 5.83254 19.6065C5.8538 19.3457 5.77429 19.0867 5.61038 18.8827C5.44647 18.6787 5.21062 18.5453 4.95135 18.5099C4.69208 18.4745 4.4291 18.5398 4.21651 18.6924C4.00392 18.845 3.85789 19.0732 3.80846 19.3302C3.75903 19.5872 3.80995 19.8533 3.95076 20.0739C4.09157 20.2944 4.31155 20.4526 4.56545 20.516Z" fill="#B6BDC2"/>
    <path d="M6.35043 12.7211C6.42448 12.7367 6.49988 12.7451 6.57556 12.746C6.83035 12.7451 7.07515 12.6467 7.25974 12.4711C7.44433 12.2954 7.55473 12.0558 7.5683 11.8014C7.58187 11.5469 7.49758 11.2969 7.33271 11.1027C7.16785 10.9084 6.93491 10.7845 6.68165 10.7565C6.4284 10.7285 6.17402 10.7985 5.97069 10.952C5.76735 11.1056 5.63047 11.3311 5.58811 11.5824C5.54575 11.8336 5.60111 12.0915 5.74286 12.3033C5.88461 12.515 6.10199 12.6645 6.35043 12.7211Z" fill="#B6BDC2"/>
    <path d="M5.45474 16.621C5.52876 16.6368 5.60416 16.6453 5.67984 16.6462C5.93491 16.6456 6.18007 16.5474 6.36506 16.3718C6.55005 16.1962 6.66084 15.9564 6.67472 15.7018C6.68859 15.4471 6.6045 15.1967 6.43968 15.0021C6.27487 14.8074 6.04182 14.6832 5.78833 14.6549C5.53484 14.6265 5.28013 14.6963 5.07642 14.8498C4.87271 15.0033 4.73545 15.2289 4.69279 15.4804C4.65012 15.7318 4.70528 15.9901 4.84696 16.2022C4.98864 16.4143 5.2061 16.5641 5.45474 16.621Z" fill="#B6BDC2"/>
    <path d="M3.66986 24.4161C3.74349 24.4342 3.81916 24.4425 3.89496 24.441C4.1495 24.4401 4.39403 24.3418 4.57842 24.1663C4.76281 23.9909 4.87309 23.7515 4.88663 23.4973C4.90018 23.2431 4.81597 22.9934 4.65127 22.7993C4.48658 22.6053 4.25388 22.4815 4.00088 22.4536C3.74788 22.4256 3.49377 22.4954 3.29064 22.6488C3.08751 22.8022 2.95075 23.0275 2.90842 23.2785C2.86608 23.5295 2.92138 23.7872 3.06296 23.9987C3.20454 24.2102 3.42168 24.3596 3.66986 24.4161Z" fill="#B6BDC2"/>
    <path d="M8.49921 9.5C8.64401 9.5 8.78718 9.46934 8.91928 9.41004C9.03896 9.35509 9.14661 9.27708 9.23609 9.18046C9.32557 9.08385 9.39512 8.97053 9.44074 8.84701C9.48636 8.72348 9.50716 8.59216 9.50196 8.46058C9.49676 8.329 9.46565 8.19973 9.41042 8.08019C9.35519 7.96065 9.27692 7.85318 9.18009 7.76393C9.08327 7.67468 8.96978 7.60541 8.84615 7.56008C8.72251 7.51476 8.59114 7.49426 8.45957 7.49978C8.32801 7.5053 8.19882 7.53671 8.07941 7.59223C7.87331 7.68846 7.70613 7.85202 7.60541 8.05596C7.5047 8.25991 7.47646 8.49208 7.52534 8.71422C7.57422 8.93637 7.69731 9.13524 7.87433 9.27807C8.05136 9.4209 8.27175 9.49918 8.49921 9.5Z" fill="#B6BDC2"/>
    <path d="M20.0507 10.726C20.1001 10.736 20.1504 10.7411 20.2008 10.7412C20.4661 10.7483 20.7238 10.6523 20.9197 10.4733C21.1157 10.2943 21.2346 10.0464 21.2514 9.78154C21.2683 9.51672 21.1818 9.25567 21.0102 9.05329C20.8386 8.8509 20.5952 8.72295 20.3311 8.69633C20.0671 8.66972 19.8031 8.74652 19.5945 8.91058C19.3859 9.07464 19.2491 9.31318 19.2128 9.57604C19.1765 9.83891 19.2435 10.1056 19.3997 10.3201C19.556 10.5345 19.7894 10.6801 20.0507 10.726Z" fill="#B6BDC2"/>
    <path d="M24.0052 11.3209C24.0551 11.3268 24.1052 11.3302 24.1554 11.3309C24.4121 11.3285 24.658 11.2267 24.8413 11.0469C25.0246 10.8671 25.1311 10.6233 25.1384 10.3666C25.1458 10.1099 25.0534 9.86038 24.8806 9.67039C24.7079 9.48039 24.4683 9.36472 24.2121 9.34766C23.9558 9.33059 23.703 9.41346 23.5066 9.57887C23.3102 9.74428 23.1855 9.97935 23.1587 10.2347C23.132 10.4901 23.2052 10.7459 23.363 10.9485C23.5209 11.151 23.751 11.2845 24.0052 11.3209Z" fill="#B6BDC2"/>
    <path d="M16.0958 10.1361C16.1458 10.141 16.1956 10.1461 16.2457 10.1461C16.5027 10.1438 16.7487 10.042 16.9322 9.86208C17.1157 9.68216 17.2224 9.43814 17.2298 9.18126C17.2371 8.92438 17.1447 8.67463 16.9719 8.48446C16.799 8.29429 16.5592 8.17849 16.3028 8.16138C16.0464 8.14428 15.7933 8.2272 15.5967 8.39272C15.4002 8.55825 15.2754 8.79351 15.2486 9.0491C15.2218 9.30468 15.2951 9.5607 15.453 9.7634C15.611 9.9661 15.8414 10.0997 16.0958 10.1361Z" fill="#B6BDC2"/>
    <path d="M12.1402 9.54119C12.1881 9.54913 12.2366 9.5524 12.2852 9.55095C12.5417 9.54938 12.7876 9.44838 12.9712 9.26921C13.1548 9.09004 13.2618 8.84666 13.2696 8.59024C13.2775 8.33383 13.1856 8.08436 13.0132 7.89432C12.8409 7.70427 12.6016 7.58845 12.3457 7.57121C12.0897 7.55397 11.8371 7.63666 11.6408 7.80189C11.4446 7.96712 11.3201 8.202 11.2934 8.45715C11.2668 8.7123 11.3402 8.96783 11.4981 9.17C11.656 9.37217 11.8862 9.50523 12.1402 9.54119Z" fill="#B6BDC2"/>
    <path d="M19.001 23.0465C19.1728 23.0464 19.3417 23.002 19.4912 22.9174L21.1357 21.9898L22.1075 23.643C22.2423 23.871 22.4619 24.0362 22.7184 24.1025C22.9748 24.1687 23.247 24.1305 23.4753 23.9963C23.7036 23.8621 23.8694 23.6428 23.9362 23.3865C24.003 23.1302 23.9654 22.8579 23.8317 22.6293L22.878 21.0071L24.4914 20.0971C24.6061 20.0328 24.707 19.9464 24.7883 19.843C24.8696 19.7396 24.9298 19.6212 24.9652 19.4946C25.0007 19.3679 25.0109 19.2355 24.9951 19.1049C24.9793 18.9743 24.938 18.8481 24.8734 18.7336C24.8088 18.619 24.7222 18.5183 24.6186 18.4372C24.515 18.3562 24.3964 18.2963 24.2697 18.2612C24.143 18.226 24.0105 18.2162 23.88 18.2323C23.7494 18.2483 23.6233 18.29 23.5089 18.3549L21.8643 19.2826L20.8924 17.6293C20.8259 17.5161 20.7376 17.4171 20.6328 17.338C20.528 17.2589 20.4086 17.2012 20.2815 17.1682C20.1544 17.1352 20.022 17.1276 19.892 17.1457C19.7619 17.1639 19.6367 17.2075 19.5235 17.2741C19.4103 17.3406 19.3113 17.4288 19.2322 17.5336C19.153 17.6385 19.0953 17.7578 19.0623 17.8849C19.0294 18.0121 19.0217 18.1444 19.0399 18.2745C19.0581 18.4046 19.1017 18.5298 19.1682 18.643L20.1219 20.2653L18.5088 21.1752C18.3162 21.2838 18.1651 21.4532 18.079 21.6569C17.9929 21.8605 17.9767 22.0869 18.0329 22.3008C18.0891 22.5146 18.2146 22.7038 18.3898 22.8387C18.565 22.9736 18.7799 23.0467 19.001 23.0465Z" fill="#B6BDC2"/>
    <path d="M62.9593 45.4236L57.078 39.5425C56.5339 38.9983 55.828 38.6452 55.0662 38.536C54.3044 38.4268 53.5277 38.5675 52.8525 38.9369L52.158 38.2424C54.1338 35.8875 55.1231 32.8601 54.9194 29.7929C54.7156 26.7257 53.3345 23.8559 51.0646 21.783C48.7947 19.7101 45.8115 18.5945 42.7385 18.6693C39.6654 18.7441 36.7401 20.0035 34.5737 22.1844C32.4073 24.3652 31.1675 27.2989 31.1132 30.3724C31.0589 33.4459 32.1943 36.4215 34.2823 38.6775C36.3703 40.9335 39.2493 42.2955 42.3178 42.4788C45.3863 42.6621 48.407 41.6526 50.7487 39.6612L51.4399 40.3524C51.0714 41.0274 50.9312 41.8035 51.04 42.5648C51.1489 43.3261 51.5011 44.0317 52.0441 44.5764L57.9253 50.4575C58.5929 51.125 59.4982 51.5 60.4423 51.5C61.3863 51.5 62.2917 51.125 62.9592 50.4575C63.6268 49.79 64.0018 48.8846 64.0018 47.9406C64.0018 46.9965 63.6268 46.0911 62.9593 45.4236ZM50.0725 37.5711C48.674 38.9696 46.8922 39.922 44.9524 40.3078C43.0126 40.6937 41.0019 40.4957 39.1746 39.7388C37.3474 38.9819 35.7856 37.7002 34.6868 36.0557C33.588 34.4112 33.0015 32.4778 33.0015 30.5C33.0015 28.5222 33.588 26.5888 34.6868 24.9443C35.7856 23.2998 37.3474 22.0181 39.1746 21.2612C41.0019 20.5043 43.0126 20.3063 44.9524 20.6921C46.8922 21.078 48.674 22.0304 50.0725 23.4289C51.0048 24.3554 51.7447 25.4571 52.2496 26.6707C52.7545 27.8842 53.0144 29.1856 53.0144 30.5C53.0144 31.8144 52.7545 33.1158 52.2496 34.3293C51.7447 35.5428 51.0048 36.6446 50.0725 37.5711Z" fill="#B6BDC2"/>
    <path d="M43.0011 23.5C41.9406 23.5012 40.9238 23.923 40.1739 24.6729C39.424 25.4228 39.0022 26.4395 39.001 27.5C39.001 27.7652 39.1063 28.0196 39.2939 28.2071C39.4814 28.3947 39.7358 28.5 40.001 28.5C40.2662 28.5 40.5206 28.3947 40.7081 28.2071C40.8957 28.0196 41.001 27.7652 41.001 27.5C41.001 27.1044 41.1183 26.7177 41.3381 26.3888C41.5578 26.0599 41.8702 25.8036 42.2357 25.6522C42.6011 25.5008 43.0033 25.4612 43.3913 25.5383C43.7792 25.6155 44.1356 25.806 44.4153 26.0857C44.695 26.3654 44.8855 26.7218 44.9627 27.1098C45.0399 27.4977 45.0003 27.8999 44.8489 28.2653C44.6975 28.6308 44.4411 28.9432 44.1122 29.1629C43.7833 29.3827 43.3966 29.5 43.0011 29.5C42.7359 29.5 42.4815 29.6054 42.294 29.7929C42.1064 29.9804 42.0011 30.2348 42.0011 30.5V32.5C42.0011 32.7652 42.1064 33.0196 42.294 33.2071C42.4815 33.3947 42.7359 33.5 43.0011 33.5C43.2663 33.5 43.5207 33.3947 43.7082 33.2071C43.8957 33.0196 44.0011 32.7652 44.0011 32.5V31.3735C44.9438 31.1301 45.7653 30.5512 46.3118 29.7454C46.8582 28.9396 47.092 27.9621 46.9693 26.9963C46.8466 26.0304 46.3759 25.1424 45.6454 24.4988C44.9149 23.8552 43.9747 23.5 43.0011 23.5Z" fill="#B6BDC2"/>
    <path d="M43.001 34.5C42.7358 34.5 42.4814 34.6054 42.2939 34.7929C42.1064 34.9804 42.001 35.2348 42.001 35.5V36.5C42.001 36.7652 42.1063 37.0196 42.2939 37.2071C42.4814 37.3947 42.7358 37.5 43.001 37.5C43.2662 37.5 43.5206 37.3947 43.7081 37.2071C43.8957 37.0196 44.001 36.7652 44.001 36.5V35.5C44.001 35.2348 43.8956 34.9804 43.7081 34.7929C43.5205 34.6054 43.2662 34.5 43.001 34.5Z" fill="#B6BDC2"/>
    <path d="M29.0469 29.5H16.3059L17.0446 30.2968C17.1339 30.3932 17.2034 30.5061 17.249 30.6293C17.2946 30.7524 17.3156 30.8833 17.3106 31.0146C17.3056 31.1458 17.2749 31.2748 17.2201 31.3941C17.1652 31.5135 17.0875 31.6209 16.9912 31.7102C16.8948 31.7995 16.7819 31.8689 16.6587 31.9145C16.5356 31.9602 16.4047 31.9811 16.2734 31.9762C16.1422 31.9712 16.0132 31.9404 15.8939 31.8856C15.7745 31.8308 15.6671 31.753 15.5778 31.6567L11.9901 27.8003C11.7557 27.5483 11.472 27.3472 11.1566 27.2095C10.8412 27.0718 10.5009 27.0005 10.1568 27H2.50006C1.83725 27.0008 1.20181 27.2644 0.733131 27.7331C0.264449 28.2018 0.00079396 28.8372 0 29.5L0 50H26.5C26.7652 50 27.0196 50.1054 27.2071 50.2929C27.3946 50.4804 27.5 50.7348 27.5 51C27.5 51.2652 27.3946 51.5196 27.2071 51.7071C27.0196 51.8946 26.7652 52 26.5 52H0V52.5C0.00122808 53.5605 0.423062 54.5772 1.17296 55.3271C1.92286 56.077 2.93959 56.4988 4.00009 56.5H36.0009C37.0614 56.4988 38.0782 56.077 38.8281 55.3271C39.578 54.5772 39.9998 53.5605 40.001 52.5V44.1757C36.7155 43.4558 33.7994 41.5758 31.7875 38.8804C29.7756 36.1849 28.8026 32.8546 29.0469 29.5Z" fill="#B6BDC2"/>
  </g>
  <defs>
    <clipPath id="clip0_14830_13834">
      <rect width="64" height="64" fill="white"/>
    </clipPath>
  </defs>
</svg>
