<svg xmlns="http://www.w3.org/2000/svg" width="16" height="16" viewBox="0 0 16 16" fill="none">
  <g clip-path="url(#clip0_14830_11405)">
    <path d="M0.639648 2.30395V13.6319C0.639648 14.7199 1.53565 15.6159 2.62365 15.6159H11.1356C12.2236 15.6159 13.1196 14.7199 13.1196 13.6319V10.8799L12.6716 11.3279C12.2236 11.7759 11.5836 12.0959 10.9436 12.2879L9.59965 12.5439C9.02365 12.6719 8.38365 12.4799 8.06365 12.0319C7.74365 11.6479 7.61565 11.1999 7.74365 10.6879L8.06365 9.27995C8.19165 8.63995 8.51165 8.06395 9.02365 7.55195L12.2236 4.35195C12.4796 4.09595 12.8636 3.83995 13.1836 3.71195V2.30395C13.1836 1.21595 12.2876 0.319946 11.1996 0.319946H2.62365C1.53565 0.319946 0.639648 1.21595 0.639648 2.30395ZM3.77565 2.55995H9.91965C10.3036 2.55995 10.5596 2.81595 10.5596 3.19995C10.5596 3.58395 10.3036 3.83995 9.91965 3.83995H3.77565C3.39165 3.83995 3.13565 3.58395 3.13565 3.19995C3.13565 2.87995 3.45565 2.55995 3.77565 2.55995ZM3.77565 5.18395H7.35965C7.74365 5.18395 7.99965 5.43995 7.99965 5.82395C7.99965 6.20795 7.74365 6.46395 7.35965 6.46395H3.77565C3.39165 6.46395 3.13565 6.20795 3.13565 5.82395C3.13565 5.43995 3.45565 5.18395 3.77565 5.18395Z" fill="#228BEE"/>
    <path d="M14.9758 5.31198C14.4638 4.79998 13.5678 4.79998 13.0558 5.31198L9.85582 8.51198C9.53582 8.83198 9.34382 9.15198 9.27982 9.59998L8.95982 10.944C8.89582 11.136 9.08782 11.328 9.27982 11.264L10.6878 10.944C11.0718 10.88 11.4558 10.624 11.7758 10.368L14.9758 7.16798C15.4878 6.65598 15.4878 5.82398 14.9758 5.31198Z" fill="#228BEE"/>
  </g>
  <defs>
    <clipPath id="clip0_14830_11405">
      <rect width="16" height="16" fill="white"/>
    </clipPath>
  </defs>
</svg>
