<svg xmlns="http://www.w3.org/2000/svg" width="20" height="20" viewBox="0 0 20 20" fill="none">
  <path d="M1.66666 1.66669H4.16666L6.36666 12.0834C6.44352 12.4619 6.65092 12.8005 6.95164 13.04C7.25236 13.2795 7.62705 13.4049 8.01249 13.3959H15.9167C16.3021 13.4049 16.6768 13.2795 16.9775 13.04C17.2783 12.8005 17.4856 12.4619 17.5625 12.0834L18.75 5.00002H4.99999" stroke="currentColor" stroke-width="1.5" stroke-linecap="round" stroke-linejoin="round"/>
  <path d="M8.33334 17.5C8.79358 17.5 9.16667 17.1269 9.16667 16.6667C9.16667 16.2065 8.79358 15.8334 8.33334 15.8334C7.8731 15.8334 7.5 16.2065 7.5 16.6667C7.5 17.1269 7.8731 17.5 8.33334 17.5Z" stroke="currentColor" stroke-width="1.5" stroke-linecap="round" stroke-linejoin="round"/>
  <path d="M15.8333 17.5C16.2936 17.5 16.6667 17.1269 16.6667 16.6667C16.6667 16.2065 16.2936 15.8334 15.8333 15.8334C15.3731 15.8334 15 16.2065 15 16.6667C15 17.1269 15.3731 17.5 15.8333 17.5Z" stroke="currentColor" stroke-width="1.5" stroke-linecap="round" stroke-linejoin="round"/>
</svg>
