<svg xmlns="http://www.w3.org/2000/svg" width="20" height="20" viewBox="0 0 20 20" fill="none">
  <path fill-rule="evenodd" clip-rule="evenodd" d="M1.04199 4.99998C1.04199 3.73433 2.06801 2.70831 3.33366 2.70831H16.667C17.9327 2.70831 18.9587 3.73433 18.9587 4.99998V13.3333C18.9587 14.599 17.9327 15.625 16.667 15.625H11.8449L12.4699 16.875H14.167C14.5122 16.875 14.792 17.1548 14.792 17.5C14.792 17.8451 14.5122 18.125 14.167 18.125H5.83366C5.48848 18.125 5.20866 17.8451 5.20866 17.5C5.20866 17.1548 5.48848 16.875 5.83366 16.875H7.53072L8.15572 15.625H3.33366C2.06801 15.625 1.04199 14.599 1.04199 13.3333V4.99998ZM16.667 14.375H3.33366C2.75836 14.375 2.29199 13.9086 2.29199 13.3333V4.99998C2.29199 4.42468 2.75836 3.95831 3.33366 3.95831H16.667C17.2423 3.95831 17.7087 4.42468 17.7087 4.99998V13.3333C17.7087 13.9086 17.2423 14.375 16.667 14.375Z" fill="#393F4C"/>
</svg>
