<svg width="20" height="20" viewBox="0 0 20 20" fill="none" xmlns="http://www.w3.org/2000/svg">
<path d="M8.40058 16.4207C8.40051 16.5674 8.44188 16.7113 8.52003 16.8361C8.59818 16.9609 8.71004 17.0617 8.84304 17.1273L10.4433 17.9167C10.5653 17.9769 10.7008 18.0053 10.8371 17.9992C10.9734 17.9931 11.1058 17.9527 11.2218 17.8819C11.3378 17.8112 11.4335 17.7123 11.4999 17.5947C11.5663 17.4771 11.6011 17.3448 11.601 17.2102V11.684C11.6012 11.2927 11.7486 10.9155 12.0147 10.6253L17.7939 4.31839C17.8974 4.20515 17.9656 4.06472 17.99 3.9141C18.0144 3.76347 17.994 3.60909 17.9314 3.46963C17.8688 3.33016 17.7665 3.21159 17.637 3.12825C17.5076 3.0449 17.3564 3.00036 17.2018 3H2.79982C2.64508 3.00006 2.49369 3.04438 2.36396 3.1276C2.23424 3.21083 2.13175 3.32938 2.06892 3.46891C2.0061 3.60843 1.98562 3.76293 2.00997 3.91371C2.03433 4.06448 2.10247 4.20505 2.20614 4.31839L7.98693 10.6253C8.25299 10.9155 8.4004 11.2927 8.40058 11.684V16.4207Z" stroke="#393F4C" stroke-width="1.5" stroke-linecap="round" stroke-linejoin="round"/>
</svg>
