<svg xmlns="http://www.w3.org/2000/svg" width="20" height="20" viewBox="0 0 20 20" fill="none">
  <path d="M8.33334 10.8333C8.69125 11.3118 9.14781 11.7076 9.67217 11.9941C10.1965 12.2807 10.7764 12.4512 11.3725 12.4942C11.9686 12.5372 12.5669 12.4517 13.1267 12.2434C13.6865 12.0351 14.1948 11.709 14.6167 11.2867L17.1167 8.78667C17.8758 7.99749 18.2958 6.94504 18.2863 5.85249C18.2768 4.75995 17.8386 3.71497 17.0659 2.93917C16.2933 2.16338 15.2502 1.72096 14.1577 1.70706C13.0651 1.69317 12.0104 2.10883 11.2167 2.86417L9.79167 4.28083" stroke="currentColor" stroke-width="1.5" stroke-linecap="round" stroke-linejoin="round"/>
  <path d="M11.6667 9.16669C11.3088 8.68821 10.8522 8.29244 10.3278 8.00586C9.80348 7.71929 9.22358 7.54879 8.62751 7.50581C8.03143 7.46282 7.4331 7.54832 6.87328 7.75664C6.31346 7.96496 5.80523 8.29104 5.38334 8.71336L2.88334 11.2134C2.12423 12.0025 1.70427 13.055 1.71375 14.1475C1.72324 15.2401 2.16145 16.2851 2.93411 17.0608C3.70678 17.8366 4.74984 18.279 5.8424 18.2929C6.93495 18.3068 7.98967 17.8912 8.78334 17.1359L10.2 15.7192" stroke="currentColor" stroke-width="1.5" stroke-linecap="round" stroke-linejoin="round"/>
</svg>
