<svg xmlns="http://www.w3.org/2000/svg" width="16" height="16" viewBox="0 0 16 16" fill="none">
  <g clip-path="url(#clip0_14830_6207)">
    <path d="M3.46877 12.5308C0.981456 10.035 0.981456 5.96911 3.46877 3.47326L4.79562 4.80011V0.80249H0.798001L2.34244 2.34693C-0.780569 5.46567 -0.780569 10.5384 2.34244 13.6614C4.31352 15.6282 7.05682 16.3578 9.59959 15.8373V14.1905C7.47919 14.7408 5.1284 14.1905 3.46877 12.5308Z" fill="#228BEE"/>
    <path d="M13.657 2.34698C11.6859 0.371638 8.94262 -0.357917 6.39984 0.162584V1.80942C8.52024 1.25905 10.8753 1.81795 12.5307 3.47331C15.0265 5.96916 15.0265 10.035 12.5307 12.5309L11.2038 11.204V15.2059H15.2057L13.6613 13.6615C16.78 10.5385 16.78 5.46573 13.657 2.34698Z" fill="#228BEE"/>
  </g>
  <defs>
    <clipPath id="clip0_14830_6207">
      <rect width="16" height="16" fill="white"/>
    </clipPath>
  </defs>
</svg>
