<svg xmlns="http://www.w3.org/2000/svg" width="20" height="20" viewBox="0 0 20 20" fill="none">
  <path d="M7.49935 14.1667H5.83268C4.72761 14.1667 3.66781 13.7277 2.8864 12.9463C2.105 12.1649 1.66602 11.1051 1.66602 10C1.66602 8.89497 2.105 7.83516 2.8864 7.05376C3.66781 6.27236 4.72761 5.83337 5.83268 5.83337H7.49935" stroke="#364153" stroke-width="1.66667" stroke-linecap="round" stroke-linejoin="round"/>
  <path d="M12.5 5.83331H14.1667C15.2717 5.83331 16.3315 6.2723 17.1129 7.0537C17.8943 7.8351 18.3333 8.89491 18.3333 9.99998C18.3333 11.105 17.8943 12.1649 17.1129 12.9463C16.3315 13.7277 15.2717 14.1666 14.1667 14.1666H12.5" stroke="#364153" stroke-width="1.66667" stroke-linecap="round" stroke-linejoin="round"/>
  <path d="M6.66602 10H13.3327" stroke="#364153" stroke-width="1.66667" stroke-linecap="round" stroke-linejoin="round"/>
</svg>
