<svg xmlns="http://www.w3.org/2000/svg" width="24" height="24" viewBox="0 0 24 24" fill="none">
  <path d="M14.2002 2H11.8002C11.4686 2 11.2002 2.26841 11.2002 2.6C11.2002 2.93159 11.4686 3.2 11.8002 3.2H14.2002C14.5318 3.2 14.8002 2.93159 14.8002 2.6C14.8002 2.26841 14.5318 2 14.2002 2Z" fill="#393F4C"/>
  <path d="M16.7998 0H7.1998C5.87662 0 4.7998 1.07681 4.7998 2.4V21.6C4.7998 22.9232 5.87662 24 7.1998 24H16.7998C18.123 24 19.1998 22.9232 19.1998 21.6V2.4C19.1998 1.07681 18.123 0 16.7998 0ZM17.9998 21.6C17.9998 22.2628 17.4626 22.8 16.7998 22.8H7.1998C6.53699 22.8 5.9998 22.2628 5.9998 21.6V2.4C5.9998 1.73719 6.53699 1.2 7.1998 1.2H16.7998C17.4626 1.2 17.9998 1.73719 17.9998 2.4V21.6Z" fill="#393F4C"/>
  <path d="M11.9998 22C12.6625 22 13.1998 21.4627 13.1998 20.8C13.1998 20.1372 12.6625 19.6 11.9998 19.6C11.3371 19.6 10.7998 20.1372 10.7998 20.8C10.7998 21.4627 11.3371 22 11.9998 22Z" fill="#393F4C"/>
  <path d="M9.8002 3.2C10.1316 3.2 10.4002 2.93137 10.4002 2.6C10.4002 2.26863 10.1316 2 9.8002 2C9.46882 2 9.2002 2.26863 9.2002 2.6C9.2002 2.93137 9.46882 3.2 9.8002 3.2Z" fill="#393F4C"/>
</svg>
