<svg xmlns="http://www.w3.org/2000/svg" width="20" height="20" viewBox="0 0 20 20" fill="none">
  <path d="M2.38281 1.75781V18.2422C2.38281 19.2114 3.17137 20 4.14062 20H15.8594C16.8286 20 17.6172 19.2114 17.6172 18.2422V1.75781C17.6172 0.788555 16.8286 0 15.8594 0H4.14062C3.17137 0 2.38281 0.788555 2.38281 1.75781ZM16.4453 1.75781V18.2422C16.4453 18.5653 16.1825 18.8281 15.8594 18.8281H4.14062C3.81754 18.8281 3.55469 18.5653 3.55469 18.2422V1.75781C3.55469 1.43473 3.81754 1.17188 4.14062 1.17188H15.8594C16.1825 1.17188 16.4453 1.43473 16.4453 1.75781Z" fill="#393F4C"/>
  <path d="M8.24219 16.4844H11.7578V17.6562H8.24219V16.4844Z" fill="#393F4C"/>
</svg>
